# xmcd
#
# Track frame offsets:
#	150
#	15844
#	33666
#	55246
#	75444
#	98741
#	117067
#	133247
#	152572
#	169287
#
# Disc length: 2522 seconds
#
# Revision: 1
# Processed by: cddbd v1.5.2PL0 Copyright (c) Steve Scherf et al.
# Submitted via: audiograbber 1.83.01
#
DISCID=7109d80a
DTITLE=Javi Garcia - The Great Controversy
DYEAR=2013
DGENRE=alt country
TTITLE0=The Sound
TTITLE1=Nightfall
TTITLE2=The Great Controversy
TTITLE3=Josephine
TTITLE4=Worthless
TTITLE5=Savanna
TTITLE6=To Be Free
TTITLE7=Cut Throat
TTITLE8=30 Years
TTITLE9=Stick To The Facts
EXTD=
EXTT0=
EXTT1=
EXTT2=
EXTT3=
EXTT4=
EXTT5=
EXTT6=
EXTT7=
EXTT8=
EXTT9=
PLAYORDER=
